# xmcd CD database file
#
# Track frame offsets:
#	150
#	25817
#	43680
#	63646
#	84002
#	101075
#	133636
#	154010
#	170131
#	211786
#	261068
#	296654
#	324407
#
# Disc length: 4657 seconds
#
# Revision: 0
# Processed by: cddbd v1.5.2PL0 Copyright (c) Steve Scherf et al.
# Submitted via: CDex 1.51
#
DISCID=b2122f0d
DTITLE=Roy Eldridge - Little Jazz and Roy and Diz
DYEAR=1954
DGENRE=Jazz
TTITLE0=A Foggy Day
TTITLE1=Blue Moon
TTITLE2=Stormy Weather
TTITLE3=Sweathearts On Parade
TTITLE4=If I Had You
TTITLE5=I Only Have Eyes For You
TTITLE6=Sweet Georgia Brown
TTITLE7=The Song Is Ended
TTITLE8=I've Found a New Baby
TTITLE9=I Can't Get Started
TTITLE10=Trumpet Blues
TTITLE11=Algo Bueno
TTITLE12=Pretty Eyed Baby
EXTD=YEAR: 1954
EXTT0=
EXTT1=
EXTT2=
EXTT3=
EXTT4=
EXTT5=
EXTT6=
EXTT7=
EXTT8=
EXTT9=
EXTT10=
EXTT11=
EXTT12=
PLAYORDER=
